<svg id="Ebene_1" data-name="Ebene 1" xmlns="http://www.w3.org/2000/svg" viewBox="0 0 2000 670"><defs><style>.cls-1{fill:#fff;}</style></defs><title>Zeichenfläche 1 Kopie</title><path class="cls-1" d="M1875.13,478.32V343.24q0-34.62,11.64-54.21T1918,261.22q19.59-8.22,44.56-8.23H1979V190q-37.45,0-63.85,16.17a112.32,112.32,0,0,0-41.15,44l-5.11-53.35H1815V478.32ZM1677.27,258.67q21.57,19.29,23.27,52.21H1541.61q5.12-35.76,28.39-53.64t53.35-17.87q32.36,0,53.92,19.3m29.8,199.79q33.77-26.68,45.12-66.41H1692a70.48,70.48,0,0,1-25.83,31.5q-17.33,11.64-42.85,11.64-31.8,0-55.91-21.29t-27-62.15h219.09q.56-8,.85-14.48t.29-12.2q0-36.88-17-67.54a130.5,130.5,0,0,0-47.68-49.1Q1665.36,190,1623.92,190q-42.57,0-74.64,18.73a130.12,130.12,0,0,0-50,52.22q-17.88,33.48-17.88,77.75,0,43.72,18.16,76.63a131,131,0,0,0,50.24,51.37q32.06,18.44,73.5,18.44,49.94,0,83.72-26.67M1240,489.67q7.38-12.48,27.25-23.27,21,3.41,48.25,5.11,36.32,2.85,49.37,14.48t13.06,28.09q0,22.14-19.3,35.47t-50.51,13.34q-32.36,0-53.92-12.2t-21.57-36.61q0-11.91,7.37-24.41M1265.26,331q-16.17-13.9-16.17-39.44,0-26.11,16.17-39.74t42.86-13.62q26.09,0,42.28,13.62t16.18,39.74q0,25.53-16.18,39.44t-42.28,13.91q-26.68,0-42.86-13.91m103.87,47.39q25.24-13.62,38.6-36.32T1421.07,291q0-28.38-13.62-51.65l49.94-2.84V196.8h-105a139.2,139.2,0,0,0-44.27-6.81q-35.76,0-61.3,13.62t-38.88,36.61A99.31,99.31,0,0,0,1194.6,291q0,46,32.92,74.35l-48.82,49.95v13.62a134.84,134.84,0,0,0,15.61,12.2A122.9,122.9,0,0,0,1215,452.21q-20.43,15.33-29.8,32.64t-9.36,34.91q0,45.4,36.61,67.82T1308.12,610q43.7,0,71.8-13.9t41.43-36.33a91.29,91.29,0,0,0,13.34-47.39q0-36.33-25-58.18t-81.17-27q-28.4-2.26-44.84-4.54t-25.54-5.11a64,64,0,0,1-15.33-6.81l24.41-23.84a155.22,155.22,0,0,0,40.87,5.11q35.75,0,61-13.63M1126.26,196.8H1066.1V478.32h60.16Zm-2-63.86q11.07-10.48,11.07-26.39t-11.07-26.39q-11.07-10.5-28.1-10.5t-28.09,10.5Q1057,90.66,1057,106.55t11.07,26.39q11.06,10.51,28.09,10.5t28.1-10.5M821.14,425.25q-14.48-11.07-14.48-30.36,0-18.74,15-31.22t50.8-12.49h67a124.26,124.26,0,0,1-11.64,42.57,78.74,78.74,0,0,1-26.11,30.94Q885,436.33,860.58,436.32q-25,0-39.44-11.07m87.12,44q22.69-15.89,34.62-39.16L948,478.32h52.22V305.21q0-53.35-32.35-84.29T876.47,190q-32.91,0-60.44,11.63t-45.41,33.49Q752.74,257,749.9,287.61h60.16q4-23.83,22.43-36t43.42-12.2q28.37,0,46.25,16.45T940,305.21v5.11H866.26q-59,0-90.82,23.83t-31.78,64.71A83.87,83.87,0,0,0,755,441.71q11.36,19.59,34.62,31.5t59,11.92q36.9,0,59.6-15.89"/><path class="cls-1" d="M566.71,289.59a61.42,61.42,0,0,0-29,7.24L412.4,126a61.75,61.75,0,1,0-96.61-11L122.41,282.46a61.72,61.72,0,1,0,4.85,89.86l273.13,189a61.68,61.68,0,1,0,89.86-24.66l58.07-126.45a61.72,61.72,0,1,0,18.39-120.65Zm-94.14,239a61.28,61.28,0,0,0-61.13,16.75l-273.14-189a61.24,61.24,0,0,0-3.2-59.16L328.4,129.82a61.5,61.5,0,0,0,68.38,7.74l125.46,171a61.58,61.58,0,0,0,8.7,92.95Z"/></svg>